# xmcd CD database file
#
# Track frame offsets:
#	150
#	5365
#	23155
#	52957
#	74255
#
# Disc length: 1255 seconds
#
# Revision: 1
# Processed by: cddbd v1.5.2PL0 Copyright (c) Steve Scherf et al.
# Submitted via: CDex 1.70beta2
#
DISCID=3404e505
DTITLE=the GazettE - 蛾蟇がま
DYEAR=2005
DGENRE=Pop
TTITLE0=anagra
TTITLE1=COCKROACH
TTITLE2=Last bouquet
TTITLE3=Katherine in the trank
TTITLE4=Sugar Pain
EXTD=YEAR: 2005
EXTT0=
EXTT1=
EXTT2=
EXTT3=
EXTT4=
PLAYORDER=
